<?xml version="1.0" encoding="UTF-8" standalone="no"?>
<!-- Created with Inkscape (http://www.inkscape.org/) -->

<svg
   xmlns:dc="http://purl.org/dc/elements/1.1/"
   xmlns:cc="http://creativecommons.org/ns#"
   xmlns:rdf="http://www.w3.org/1999/02/22-rdf-syntax-ns#"
   xmlns:svg="http://www.w3.org/2000/svg"
   xmlns="http://www.w3.org/2000/svg"
   xmlns:sodipodi="http://sodipodi.sourceforge.net/DTD/sodipodi-0.dtd"
   xmlns:inkscape="http://www.inkscape.org/namespaces/inkscape"
   width="524"
   height="524.24847"
   viewBox="0 0 524 524.24849"
   id="svg6888"
   version="1.1"
   inkscape:version="0.91 r13725"
   sodipodi:docname="icon.svg">
  <defs
     id="defs6890" />
  <sodipodi:namedview
     id="base"
     pagecolor="#ffffff"
     bordercolor="#666666"
     borderopacity="1.0"
     inkscape:pageopacity="0.0"
     inkscape:pageshadow="2"
     inkscape:zoom="0.7"
     inkscape:cx="180.24732"
     inkscape:cy="185.31826"
     inkscape:document-units="px"
     inkscape:current-layer="layer1"
     showgrid="false"
     fit-margin-top="0"
     fit-margin-left="0"
     fit-margin-right="0"
     fit-margin-bottom="0"
     units="px"
     inkscape:window-width="1317"
     inkscape:window-height="744"
     inkscape:window-x="49"
     inkscape:window-y="24"
     inkscape:window-maximized="1" />
  <metadata
     id="metadata6893">
    <rdf:RDF>
      <cc:Work
         rdf:about="">
        <dc:format>image/svg+xml</dc:format>
        <dc:type
           rdf:resource="http://purl.org/dc/dcmitype/StillImage" />
        <dc:title></dc:title>
      </cc:Work>
    </rdf:RDF>
  </metadata>
  <g
     inkscape:label="Livello 1"
     inkscape:groupmode="layer"
     id="layer1"
     transform="translate(543.07832,-539.78141)">
    <g
       style="clip-rule:evenodd;fill-rule:evenodd;image-rendering:optimizeQuality;shape-rendering:geometricPrecision;text-rendering:geometricPrecision"
       id="g6837"
       transform="matrix(0.24845899,0,0,0.24845899,-6843.8378,-2362.8877)">
      <path
         inkscape:connector-curvature="0"
         class="fil6"
         d="m 27239.354,13792.689 -1651,0 c -127,0 -229,-103 -229,-230 l 0,-1650 c 0,-127 102,-230 229,-230 l 1651,0 c 126,0 229,103 229,230 l 0,1650 c 0,127 -103,230 -229,230 z"
         id="path408-3"
         style="clip-rule:evenodd;fill:#ffffff;fill-rule:evenodd;image-rendering:optimizeQuality;shape-rendering:geometricPrecision;text-rendering:geometricPrecision" />
      <path
         inkscape:connector-curvature="0"
         class="fil6"
         d="m 27239.354,13792.689 -795,0 -445,-386 c 11,7 25,11 40,11 l 795,0 c 42,0 76,-34 76,-76 l 0,-1193 c 0,-20 -8,-39 -22,-53 l 580,498 0,969 c 0,127 -103,230 -229,230 z"
         id="path410-3"
         style="clip-rule:evenodd;fill:#ffffff;fill-rule:evenodd;image-rendering:optimizeQuality;shape-rendering:geometricPrecision;text-rendering:geometricPrecision" />
      <path
         inkscape:connector-curvature="0"
         class="fil2"
         d="m 26932.976,13584.541 -992.244,0 c -52.421,0 -94.857,-42.436 -94.857,-94.856 l 0,-1488.992 c 0,-52.42 42.436,-94.856 94.857,-94.856 l 992.244,0 c 52.421,0 94.857,42.436 94.857,94.856 l 0,1488.992 c 0,52.42 -42.436,94.856 -94.857,94.856 z"
         id="path412-3"
         style="clip-rule:evenodd;fill:#2b2a29;fill-rule:evenodd;image-rendering:optimizeQuality;shape-rendering:geometricPrecision;text-rendering:geometricPrecision" />
      <path
         inkscape:connector-curvature="0"
         class="fil7"
         d="m 26856.842,12430.042 -824.999,0 c -16.225,0 -28.706,-12.481 -28.706,-28.706 l 0,-275.832 c 0,-16.225 12.481,-28.706 28.706,-28.706 l 824.999,0 c 14.977,0 28.706,12.481 28.706,28.706 l 0,275.832 c 0,16.225 -13.729,28.706 -28.706,28.706 z"
         id="path414-8"
         style="clip-rule:evenodd;fill:#fefefe;fill-rule:evenodd;image-rendering:optimizeQuality;shape-rendering:geometricPrecision;text-rendering:geometricPrecision" />
      <path
         inkscape:connector-curvature="0"
         class="fil7"
         d="m 26846.857,12423.802 -813.766,0 c -8.736,0 -16.225,-3.745 -21.217,-8.737 0,0 551.663,-59.909 854.953,-312.027 4.992,4.993 7.488,12.481 7.488,19.97 l 0,273.335 c 0,14.977 -12.481,27.459 -27.458,27.459 z"
         id="path416-6"
         style="clip-rule:evenodd;fill:#fefefe;fill-rule:evenodd;image-rendering:optimizeQuality;shape-rendering:geometricPrecision;text-rendering:geometricPrecision" />
      <path
         inkscape:connector-curvature="0"
         class="fil6"
         d="m 26856.842,12861.887 -114.826,0 c -16.225,0 -28.706,-12.481 -28.706,-28.706 l 0,-113.578 c 0,-16.226 12.481,-28.707 28.706,-28.707 l 114.826,0 c 14.977,0 28.706,12.481 28.706,28.707 l 0,113.578 c 0,16.225 -13.729,28.706 -28.706,28.706 z"
         id="path418-0"
         style="clip-rule:evenodd;fill:#ffffff;fill-rule:evenodd;image-rendering:optimizeQuality;shape-rendering:geometricPrecision;text-rendering:geometricPrecision" />
      <path
         inkscape:connector-curvature="0"
         class="fil6"
         d="m 26856.842,13393.58 -114.826,0 c -16.225,0 -28.706,-12.481 -28.706,-28.706 l 0,-376.928 c 0,-14.978 12.481,-28.707 28.706,-28.707 l 114.826,0 c 14.977,0 28.706,13.729 28.706,28.707 l 0,376.928 c 0,16.225 -13.729,28.706 -28.706,28.706 z"
         id="path420-4"
         style="clip-rule:evenodd;fill:#ffffff;fill-rule:evenodd;image-rendering:optimizeQuality;shape-rendering:geometricPrecision;text-rendering:geometricPrecision" />
      <path
         inkscape:connector-curvature="0"
         class="fil6"
         d="m 25981.919,12723.347 0,183.472 c 0,24.962 19.97,46.18 44.932,46.18 l 97.352,0 c 23.714,-56.165 72.39,-97.353 132.3,-112.33 l 0,-117.322 c 0,-24.962 -21.218,-46.18 -46.18,-46.18 l -183.472,0 c -24.962,0 -44.932,21.218 -44.932,46.18 z"
         id="path422-8"
         style="clip-rule:evenodd;fill:#ffffff;fill-rule:evenodd;image-rendering:optimizeQuality;shape-rendering:geometricPrecision;text-rendering:geometricPrecision" />
      <path
         inkscape:connector-curvature="0"
         class="fil6"
         d="m 26347.614,12723.347 0,117.322 c 59.909,14.977 108.586,56.165 132.3,112.33 l 97.352,0 c 24.962,0 44.932,-21.218 44.932,-46.18 l 0,-183.472 c 0,-24.962 -19.97,-46.18 -44.932,-46.18 l -183.472,0 c -24.962,0 -46.18,21.218 -46.18,46.18 z"
         id="path424-8"
         style="clip-rule:evenodd;fill:#ffffff;fill-rule:evenodd;image-rendering:optimizeQuality;shape-rendering:geometricPrecision;text-rendering:geometricPrecision" />
      <path
         inkscape:connector-curvature="0"
         class="fil6"
         d="m 26577.266,13106.516 -97.352,0 c -23.714,54.917 -72.391,96.104 -132.3,111.081 l 0,117.322 c 0,26.211 21.218,46.18 46.18,46.18 l 183.472,0 c 24.962,0 44.932,-19.969 44.932,-46.18 l 0,-182.223 c 0,-26.21 -19.97,-46.18 -44.932,-46.18 z"
         id="path426-8"
         style="clip-rule:evenodd;fill:#ffffff;fill-rule:evenodd;image-rendering:optimizeQuality;shape-rendering:geometricPrecision;text-rendering:geometricPrecision" />
      <path
         inkscape:connector-curvature="0"
         class="fil6"
         d="m 26256.503,13334.919 0,-117.322 c -59.91,-14.977 -108.586,-56.164 -132.3,-111.081 l -97.352,0 c -24.962,0 -44.932,19.97 -44.932,46.18 l 0,182.223 c 0,26.211 19.97,46.18 44.932,46.18 l 183.472,0 c 24.962,0 46.18,-19.969 46.18,-46.18 z"
         id="path428-9"
         style="clip-rule:evenodd;fill:#ffffff;fill-rule:evenodd;image-rendering:optimizeQuality;shape-rendering:geometricPrecision;text-rendering:geometricPrecision" />
      <circle
         class="fil7"
         cx="26302.682"
         cy="13030.381"
         r="154.76523"
         id="circle430-7"
         style="clip-rule:evenodd;fill:#fefefe;fill-rule:evenodd;image-rendering:optimizeQuality;shape-rendering:geometricPrecision;text-rendering:geometricPrecision" />
      <polygon
         transform="matrix(1.2481067,0,0,1.2481067,23122.507,-3665.5416)"
         class="fil2"
         points="2554,13484 2567,13462 2653,13314 2652,13314 2612,13314 2611,13314 2601,13330 2547,13424 2493,13331 2484,13314 2483,13314 2443,13314 2442,13314 2547,13496 2547,13496 "
         id="polygon432-7"
         style="clip-rule:evenodd;fill:#2b2a29;fill-rule:evenodd;image-rendering:optimizeQuality;shape-rendering:geometricPrecision;text-rendering:geometricPrecision" />
      <polygon
         transform="matrix(1.2481067,0,0,1.2481067,23122.507,-3665.5416)"
         class="fil2"
         points="2611,13314 2569,13314 2547,13351 2526,13314 2484,13314 2493,13331 2547,13424 2601,13330 "
         id="polygon434-6"
         style="clip-rule:evenodd;fill:#2b2a29;fill-rule:evenodd;image-rendering:optimizeQuality;shape-rendering:geometricPrecision;text-rendering:geometricPrecision" />
      <polygon
         transform="matrix(1.2481067,0,0,1.2481067,23122.507,-3665.5416)"
         class="fil8"
         points="2412,13141 2412,13193 2464,13193 2464,13215 2412,13215 2412,13268 2389,13268 2389,13215 2337,13215 2337,13193 2389,13193 2389,13141 "
         id="polygon436-4"
         style="clip-rule:evenodd;fill:#2b2a29;fill-rule:nonzero;image-rendering:optimizeQuality;shape-rendering:geometricPrecision;text-rendering:geometricPrecision" />
      <polygon
         transform="matrix(1.2481067,0,0,1.2481067,23122.507,-3665.5416)"
         class="fil8"
         points="2731,13193 2731,13216 2657,13216 2657,13193 "
         id="polygon438-3"
         style="clip-rule:evenodd;fill:#2b2a29;fill-rule:nonzero;image-rendering:optimizeQuality;shape-rendering:geometricPrecision;text-rendering:geometricPrecision" />
      <path
         inkscape:connector-curvature="0"
         class="fil8"
         d="m 26064.294,13240.063 7.489,-22.466 c 17.473,6.241 29.954,11.233 38.691,16.226 -2.496,-19.97 -3.744,-33.699 -3.744,-41.188 l 23.714,0 c 0,11.233 -1.248,23.714 -3.745,39.94 11.233,-4.993 23.715,-9.985 38.692,-14.978 l 7.488,22.466 c -13.729,4.993 -27.458,8.737 -41.187,9.985 7.489,4.993 16.225,16.226 28.706,31.203 l -19.969,13.729 c -6.241,-8.737 -13.73,-19.97 -22.466,-34.947 -7.489,14.977 -14.978,26.21 -21.218,34.947 l -18.722,-13.729 c 12.481,-16.226 21.218,-26.21 26.211,-31.203 -13.73,-2.496 -27.459,-6.24 -39.94,-9.985 z"
         id="path440-0"
         style="clip-rule:evenodd;fill:#2b2a29;fill-rule:nonzero;image-rendering:optimizeQuality;shape-rendering:geometricPrecision;text-rendering:geometricPrecision" />
      <polygon
         transform="matrix(1.2481067,0,0,1.2481067,23122.507,-3665.5416)"
         class="fil8"
         points="2743,13538 2743,13558 2645,13558 2645,13538 "
         id="polygon442-3"
         style="clip-rule:evenodd;fill:#2b2a29;fill-rule:nonzero;image-rendering:optimizeQuality;shape-rendering:geometricPrecision;text-rendering:geometricPrecision" />
      <circle
         class="fil2"
         cx="26484.906"
         cy="13200.123"
         r="21.217813"
         id="circle444-0"
         style="clip-rule:evenodd;fill:#2b2a29;fill-rule:evenodd;image-rendering:optimizeQuality;shape-rendering:geometricPrecision;text-rendering:geometricPrecision" />
      <circle
         class="fil2"
         cx="26484.906"
         cy="13286.242"
         r="21.217813"
         id="circle446-9"
         style="clip-rule:evenodd;fill:#2b2a29;fill-rule:evenodd;image-rendering:optimizeQuality;shape-rendering:geometricPrecision;text-rendering:geometricPrecision" />
    </g>
  </g>
</svg>
