<?xml version="1.0" encoding="UTF-8" standalone="no"?>
<!-- Created with Inkscape (http://www.inkscape.org/) -->

<svg
   xmlns:dc="http://purl.org/dc/elements/1.1/"
   xmlns:cc="http://creativecommons.org/ns#"
   xmlns:rdf="http://www.w3.org/1999/02/22-rdf-syntax-ns#"
   xmlns:svg="http://www.w3.org/2000/svg"
   xmlns="http://www.w3.org/2000/svg"
   xmlns:sodipodi="http://sodipodi.sourceforge.net/DTD/sodipodi-0.dtd"
   xmlns:inkscape="http://www.inkscape.org/namespaces/inkscape"
   width="199.97459mm"
   height="199.97459mm"
   viewBox="0 0 708.5714 708.57139"
   id="svg4361"
   version="1.1"
   inkscape:version="0.91 r13725"
   sodipodi:docname="icon.svg">
  <defs
     id="defs4363" />
  <sodipodi:namedview
     id="base"
     pagecolor="#ffffff"
     bordercolor="#666666"
     borderopacity="1.0"
     inkscape:pageopacity="0.0"
     inkscape:pageshadow="2"
     inkscape:zoom="0.24748737"
     inkscape:cx="593.53476"
     inkscape:cy="122.38712"
     inkscape:document-units="px"
     inkscape:current-layer="layer1"
     showgrid="false"
     fit-margin-top="0"
     fit-margin-left="0"
     fit-margin-right="0"
     fit-margin-bottom="0"
     inkscape:window-width="1317"
     inkscape:window-height="744"
     inkscape:window-x="49"
     inkscape:window-y="24"
     inkscape:window-maximized="1" />
  <metadata
     id="metadata4366">
    <rdf:RDF>
      <cc:Work
         rdf:about="">
        <dc:format>image/svg+xml</dc:format>
        <dc:type
           rdf:resource="http://purl.org/dc/dcmitype/StillImage" />
        <dc:title></dc:title>
      </cc:Work>
    </rdf:RDF>
  </metadata>
  <g
     inkscape:label="Livello 1"
     inkscape:groupmode="layer"
     id="layer1"
     transform="translate(798.96015,27.434761)">
    <g
       id="g5092"
       transform="translate(-818.85714,216.36221)" />
    <g
       id="g5094"
       transform="translate(-818.85714,216.36221)" />
    <g
       id="g5096"
       transform="translate(-818.85714,216.36221)" />
    <g
       id="g5098"
       transform="translate(-818.85714,216.36221)" />
    <g
       id="g5100"
       transform="translate(-818.85714,216.36221)" />
    <g
       id="g5102"
       transform="translate(-818.85714,216.36221)" />
    <g
       id="g5104"
       transform="translate(-818.85714,216.36221)" />
    <g
       id="g5106"
       transform="translate(-818.85714,216.36221)" />
    <g
       id="g5108"
       transform="translate(-818.85714,216.36221)" />
    <g
       id="g5110"
       transform="translate(-818.85714,216.36221)" />
    <g
       id="g5112"
       transform="translate(-818.85714,216.36221)" />
    <g
       id="g5114"
       transform="translate(-818.85714,216.36221)" />
    <g
       id="g5116"
       transform="translate(-818.85714,216.36221)" />
    <g
       id="g5118"
       transform="translate(-818.85714,216.36221)" />
    <g
       id="g5120"
       transform="translate(-818.85714,216.36221)" />
    <g
       id="g5246"
       transform="translate(85.714284,-137.14286)">
      <circle
         r="354.28571"
         cy="463.9938"
         cx="-530.38873"
         id="path5190-7"
         style="opacity:1;fill:#bbbbbb;fill-opacity:1;stroke:none;stroke-width:20;stroke-linecap:round;stroke-linejoin:round;stroke-miterlimit:4;stroke-dasharray:none;stroke-opacity:0.22352941" />
      <circle
         r="334.28571"
         cy="455.21936"
         cx="-531.42853"
         id="path5190"
         style="opacity:1;fill:#f1f1f1;fill-opacity:1;stroke:#ffffff;stroke-width:20;stroke-linecap:round;stroke-linejoin:round;stroke-miterlimit:4;stroke-dasharray:none;stroke-opacity:1" />
      <path
         id="path5070"
         d="m -338.85714,216.36221 -288,0 c -17.673,0 -32,14.327 -32,32 l 0,384 c 0,17.673 14.327,32 32,32 l 288,0 c 17.673,0 32,-14.327 32,-32 l 0,-384 c 0,-17.673 -14.327,-32 -32,-32 z"
         style="fill:#4dba87;fill-opacity:1"
         inkscape:connector-curvature="0" />
      <path
         style="fill:#435466;fill-opacity:1;stroke:#435466;stroke-opacity:1"
         id="path5078"
         d="m -338.85714,664.36221 -80,0 c -8.837,0 -16,-7.163 -16,-16 0,-8.837 7.163,-16 16,-16 l 80,0 0,-384 -288,0 0,48 c 0,8.837 -7.163,16 -16,16 -8.837,0 -16,-7.163 -16,-16 l 0,-48 c 0,-17.673 14.327,-32 32,-32 l 288,0 c 17.673,0 32,14.327 32,32 l 0,384 c 0,17.673 -14.327,32 -32,32 z"
         inkscape:connector-curvature="0" />
      <path
         id="path5072"
         d="m -578.85714,280.36221 192,0 c 8.837,0 16,7.163 16,16 l 0,64 c 0,8.837 -7.163,16 -16,16 l -192,0 c -8.837,0 -16,-7.163 -16,-16 l 0,-64 c 0,-8.837 7.163,-16 16,-16 z"
         style="fill:#ffffff;fill-opacity:1"
         inkscape:connector-curvature="0" />
      <path
         style="fill:#435466;fill-opacity:1"
         id="path5076"
         d="m -386.85714,376.36221 -192,0 c -8.837,0 -16,-7.163 -16,-16 l 0,-64 c 0,-8.837 7.163,-16 16,-16 l 192,0 c 8.837,0 16,7.163 16,16 l 0,64 c 0,8.837 -7.163,16 -16,16 z m -176,-32 160,0 0,-32 -160,0 0,32 z"
         inkscape:connector-curvature="0" />
      <circle
         id="circle5074"
         r="192"
         cy="536.36218"
         cx="-626.85712"
         style="fill:#e9e9e9;fill-opacity:1" />
      <path
         style="fill:#435466;fill-opacity:1;stroke:none;stroke-opacity:1"
         id="path5090"
         d="m -626.85714,728.36221 c -106.039,0 -192,-85.961 -192,-192 0,-106.039 85.961,-192 192,-192 106.039,0 192,85.961 192,192 -0.106,105.995 -86.005,191.894 -192,192 z m 0,-352 c -88.366,0 -160,71.634 -160,160 0,88.366 71.634,160 160,160 88.366,0 160,-71.634 160,-160 -0.106,-88.322 -71.678,-159.894 -160,-160 z"
         inkscape:connector-curvature="0" />
      <rect
         style="fill:#435466;fill-opacity:1"
         id="rect5080"
         height="32"
         width="32"
         y="440.36221"
         x="-402.85715" />
      <rect
         style="fill:#435466;fill-opacity:1"
         id="rect5082"
         height="32"
         width="32"
         y="536.36218"
         x="-402.85715" />
      <g
         transform="matrix(1.1988929,0,0,-1.1988929,-817.72887,726.48199)"
         id="g10">
        <g
           transform="translate(178.0626,235.0086)"
           id="g12">
          <path
             inkscape:connector-curvature="0"
             id="path14"
             style="fill:#4dba87;fill-opacity:1;fill-rule:nonzero;stroke:none"
             d="M 0,0 -22.669,-39.264 -45.338,0 -120.829,0 -22.669,-170.017 75.491,0 Z" />
        </g>
        <g
           transform="translate(178.0626,235.0086)"
           id="g16">
          <path
             inkscape:connector-curvature="0"
             id="path18"
             style="fill:#435466;fill-opacity:1;fill-rule:nonzero;stroke:none"
             d="M 0,0 -22.669,-39.264 -45.338,0 -81.565,0 -22.669,-102.01 36.227,0 Z" />
        </g>
      </g>
    </g>
  </g>
</svg>
