<?xml version="1.0" encoding="UTF-8" standalone="no"?>
<!-- Created with Inkscape (http://www.inkscape.org/) -->

<svg
   xmlns:dc="http://purl.org/dc/elements/1.1/"
   xmlns:cc="http://creativecommons.org/ns#"
   xmlns:rdf="http://www.w3.org/1999/02/22-rdf-syntax-ns#"
   xmlns:svg="http://www.w3.org/2000/svg"
   xmlns="http://www.w3.org/2000/svg"
   xmlns:sodipodi="http://sodipodi.sourceforge.net/DTD/sodipodi-0.dtd"
   xmlns:inkscape="http://www.inkscape.org/namespaces/inkscape"
   width="288.99554mm"
   height="288.99557mm"
   viewBox="0 0 1024 1024.0001"
   id="svg5529"
   version="1.1"
   inkscape:version="0.91 r13725"
   sodipodi:docname="logo per sito electronJS.svg">
  <defs
     id="defs5531" />
  <sodipodi:namedview
     id="base"
     pagecolor="#ffffff"
     bordercolor="#666666"
     borderopacity="1.0"
     inkscape:pageopacity="0.0"
     inkscape:pageshadow="2"
     inkscape:zoom="0.087500002"
     inkscape:cx="-1335.542"
     inkscape:cy="2056.1459"
     inkscape:document-units="px"
     inkscape:current-layer="layer1"
     showgrid="false"
     fit-margin-top="0"
     fit-margin-left="0"
     fit-margin-right="0"
     fit-margin-bottom="0"
     inkscape:window-width="1317"
     inkscape:window-height="744"
     inkscape:window-x="49"
     inkscape:window-y="24"
     inkscape:window-maximized="1" />
  <metadata
     id="metadata5534">
    <rdf:RDF>
      <cc:Work
         rdf:about="">
        <dc:format>image/svg+xml</dc:format>
        <dc:type
           rdf:resource="http://purl.org/dc/dcmitype/StillImage" />
        <dc:title></dc:title>
      </cc:Work>
    </rdf:RDF>
  </metadata>
  <g
     inkscape:label="Livello 1"
     inkscape:groupmode="layer"
     id="layer1"
     transform="translate(-286.55511,453.19312)">
    <g
       id="g6121"
       transform="matrix(13.317768,0,0,13.317768,-3529.7195,-7031.0694)"
       inkscape:export-xdpi="90"
       inkscape:export-ydpi="90">
      <path
         class="fil18"
         d="m 355.01181,570.73622 -60.09449,0 c -4.6063,0 -8.3622,-3.75591 -8.3622,-8.36221 l 0,-60.09448 c 0,-4.6063 3.7559,-8.36221 8.3622,-8.36221 l 60.09449,0 c 4.6063,0 8.3622,3.75591 8.3622,8.36221 l 0,60.09448 c 0,4.6063 -3.7559,8.36221 -8.3622,8.36221 z"
         id="path614"
         inkscape:connector-curvature="0"
         style="clip-rule:evenodd;fill:#009846;fill-rule:evenodd;image-rendering:optimizeQuality;shape-rendering:geometricPrecision;text-rendering:geometricPrecision" />
      <path
         class="fil28"
         d="m 355.08268,570.80709 -28.98425,0 -16.26378,-14.10237 c 0.42519,0.28347 0.92126,0.4252 1.45275,0.4252 l 29.01969,0 c 1.52362,0 2.79921,-1.24016 2.79921,-2.76378 l 0,-43.51181 c 0,-0.77953 -0.3189,-1.45275 -0.81496,-1.94882 l 21.15354,18.17717 0,35.3622 c 0,4.6063 -3.7559,8.36221 -8.3622,8.36221 z"
         id="path616"
         inkscape:connector-curvature="0"
         style="clip-rule:evenodd;fill:#498a5f;fill-rule:evenodd;image-rendering:optimizeQuality;shape-rendering:geometricPrecision;text-rendering:geometricPrecision" />
      <path
         class="fil12"
         d="m 340.30709,557.12992 -29.01969,0 c -1.52362,0 -2.76378,-1.24016 -2.76378,-2.76378 l 0,-43.51181 c 0,-1.55905 1.24016,-2.79921 2.76378,-2.79921 l 29.01969,0 c 1.52362,0 2.79921,1.24016 2.79921,2.79921 l 0,43.51181 c 0,1.52362 -1.27559,2.76378 -2.79921,2.76378 z"
         id="path618"
         inkscape:connector-curvature="0"
         style="clip-rule:evenodd;fill:#d9dada;fill-rule:evenodd;image-rendering:optimizeQuality;shape-rendering:geometricPrecision;text-rendering:geometricPrecision" />
      <path
         class="fil13"
         d="m 338.0748,523.39764 -24.12992,0 c -0.46063,0 -0.81496,-0.38977 -0.81496,-0.8504 l 0,-8.07874 c 0,-0.46063 0.35433,-0.81496 0.81496,-0.81496 l 24.12992,0 c 0.46063,0 0.8504,0.35433 0.8504,0.81496 l 0,8.07874 c 0,0.46063 -0.38977,0.8504 -0.8504,0.8504 z"
         id="path620"
         inkscape:connector-curvature="0"
         style="clip-rule:evenodd;fill:#727271;fill-rule:evenodd;image-rendering:optimizeQuality;shape-rendering:geometricPrecision;text-rendering:geometricPrecision" />
      <path
         class="fil14"
         d="m 337.79134,523.22047 -23.81102,0 c -0.2126,0 -0.4252,-0.1063 -0.60237,-0.28346 0,0 16.12205,-1.73622 24.98032,-9.1063 0.14173,0.14173 0.24803,0.35433 0.24803,0.56693 l 0,7.97244 c 0,0.46063 -0.35433,0.85039 -0.81496,0.85039 z"
         id="path622"
         inkscape:connector-curvature="0"
         style="clip-rule:evenodd;fill:#898989;fill-rule:evenodd;image-rendering:optimizeQuality;shape-rendering:geometricPrecision;text-rendering:geometricPrecision" />
      <path
         class="fil29"
         d="m 338.0748,536.01181 -3.36614,0 c -0.46063,0 -0.81496,-0.35433 -0.81496,-0.81496 l 0,-3.36614 c 0,-0.46063 0.35433,-0.81496 0.81496,-0.81496 l 3.36614,0 c 0.46063,0 0.8504,0.35433 0.8504,0.81496 l 0,3.36614 c 0,0.46063 -0.38977,0.81496 -0.8504,0.81496 z"
         id="path624"
         inkscape:connector-curvature="0"
         style="clip-rule:evenodd;fill:#a2071a;fill-rule:evenodd;image-rendering:optimizeQuality;shape-rendering:geometricPrecision;text-rendering:geometricPrecision" />
      <path
         class="fil19"
         d="m 338.0748,551.56693 -3.36614,0 c -0.46063,0 -0.81496,-0.38977 -0.81496,-0.8504 l 0,-11.01968 c 0,-0.46063 0.35433,-0.81496 0.81496,-0.81496 l 3.36614,0 c 0.46063,0 0.8504,0.35433 0.8504,0.81496 l 0,11.01968 c 0,0.46063 -0.38977,0.8504 -0.8504,0.8504 z"
         id="path626"
         inkscape:connector-curvature="0"
         style="clip-rule:evenodd;fill:#003d50;fill-rule:evenodd;image-rendering:optimizeQuality;shape-rendering:geometricPrecision;text-rendering:geometricPrecision" />
      <path
         class="fil19"
         d="m 312.49213,531.97244 0,5.35039 c 0,0.7441 0.60236,1.34646 1.34645,1.34646 l 2.83465,0 c 0.67323,-1.62992 2.12598,-2.83464 3.8622,-3.25984 l 0,-3.43701 c 0,-0.74409 -0.60236,-1.34646 -1.34645,-1.34646 l -5.3504,0 c -0.74409,0 -1.34645,0.60237 -1.34645,1.34646 z"
         id="path628"
         inkscape:connector-curvature="0"
         style="clip-rule:evenodd;fill:#003d50;fill-rule:evenodd;image-rendering:optimizeQuality;shape-rendering:geometricPrecision;text-rendering:geometricPrecision" />
      <path
         class="fil19"
         d="m 323.19291,531.97244 0,3.43701 c 1.73622,0.4252 3.15355,1.62992 3.86221,3.25984 l 2.83464,0 c 0.7441,0 1.34646,-0.60236 1.34646,-1.34646 l 0,-5.35039 c 0,-0.74409 -0.60236,-1.34646 -1.34646,-1.34646 l -5.35039,0 c -0.74409,0 -1.34646,0.60237 -1.34646,1.34646 z"
         id="path630"
         inkscape:connector-curvature="0"
         style="clip-rule:evenodd;fill:#003d50;fill-rule:evenodd;image-rendering:optimizeQuality;shape-rendering:geometricPrecision;text-rendering:geometricPrecision" />
      <path
         class="fil19"
         d="m 329.88976,543.16929 -2.83464,0 c -0.70866,1.59449 -2.12599,2.79921 -3.86221,3.22441 l 0,3.43701 c 0,0.74409 0.60237,1.34645 1.34646,1.34645 l 5.35039,0 c 0.7441,0 1.34646,-0.60236 1.34646,-1.34645 l 0,-5.3504 c 0,-0.74409 -0.60236,-1.31102 -1.34646,-1.31102 z"
         id="path632"
         inkscape:connector-curvature="0"
         style="clip-rule:evenodd;fill:#003d50;fill-rule:evenodd;image-rendering:optimizeQuality;shape-rendering:geometricPrecision;text-rendering:geometricPrecision" />
      <path
         class="fil19"
         d="m 320.53543,549.83071 0,-3.43701 c -1.73622,-0.4252 -3.18897,-1.62992 -3.8622,-3.22441 l -2.83465,0 c -0.74409,0 -1.34645,0.56693 -1.34645,1.31102 l 0,5.3504 c 0,0.74409 0.60236,1.34645 1.34645,1.34645 l 5.3504,0 c 0.74409,0 1.34645,-0.60236 1.34645,-1.34645 z"
         id="path634"
         inkscape:connector-curvature="0"
         style="clip-rule:evenodd;fill:#003d50;fill-rule:evenodd;image-rendering:optimizeQuality;shape-rendering:geometricPrecision;text-rendering:geometricPrecision" />
      <circle
         class="fil7"
         cx="321.8819"
         cy="540.93701"
         r="4.5354328"
         id="circle636"
         style="clip-rule:evenodd;fill:#fefefe;fill-rule:evenodd;image-rendering:optimizeQuality;shape-rendering:geometricPrecision;text-rendering:geometricPrecision" />
      <polygon
         class="fil18"
         points="5635,18209 5643,18196 5655,18174 5744,18021 5743,18021 5702,18021 5701,18021 5691,18038 5635,18134 5580,18038 5570,18021 5569,18021 5528,18021 5527,18022 5635,18208 "
         id="polygon638"
         style="clip-rule:evenodd;fill:#009846;fill-rule:evenodd;image-rendering:optimizeQuality;shape-rendering:geometricPrecision;text-rendering:geometricPrecision"
         transform="matrix(0.03543307,0,0,0.03543307,122.18111,-99.905496)" />
      <polygon
         class="fil19"
         points="5701,18021 5658,18021 5635,18060 5613,18021 5570,18021 5580,18038 5635,18134 5691,18038 "
         id="polygon640"
         style="clip-rule:evenodd;fill:#003d50;fill-rule:evenodd;image-rendering:optimizeQuality;shape-rendering:geometricPrecision;text-rendering:geometricPrecision"
         transform="matrix(0.03543307,0,0,0.03543307,122.18111,-99.905496)" />
      <polygon
         class="fil4"
         points="5419,17920 5419,17897 5473,17897 5473,17843 5496,17843 5496,17897 5550,17897 5550,17920 5496,17920 5496,17974 5473,17974 5473,17920 "
         id="polygon642"
         style="clip-rule:evenodd;fill:#fefefe;fill-rule:nonzero;image-rendering:optimizeQuality;shape-rendering:geometricPrecision;text-rendering:geometricPrecision"
         transform="matrix(0.03543307,0,0,0.03543307,122.18111,-99.905496)" />
      <polygon
         class="fil4"
         points="5824,17896 5824,17921 5749,17921 5749,17896 "
         id="polygon644"
         style="clip-rule:evenodd;fill:#fefefe;fill-rule:nonzero;image-rendering:optimizeQuality;shape-rendering:geometricPrecision;text-rendering:geometricPrecision"
         transform="matrix(0.03543307,0,0,0.03543307,122.18111,-99.905496)" />
      <path
         class="fil4"
         d="m 314.93701,547.06693 0.2126,-0.67323 c 0.49606,0.17717 0.88582,0.35433 1.09842,0.46063 -0.0709,-0.56693 -0.1063,-0.95669 -0.1063,-1.16929 l 0.70866,0 c 0,0.3189 -0.0354,0.70866 -0.10629,1.16929 0.31889,-0.14173 0.70866,-0.3189 1.13385,-0.46063 l 0.2126,0.67323 c -0.38976,0.14173 -0.81496,0.24803 -1.20472,0.28346 0.2126,0.17717 0.49606,0.46063 0.85039,0.92126 l -0.60236,0.38977 c -0.17717,-0.24803 -0.38976,-0.60237 -0.6378,-1.02756 -0.24803,0.46063 -0.46063,0.81496 -0.63779,1.02756 l -0.56693,-0.38977 c 0.38976,-0.46063 0.63779,-0.77952 0.81496,-0.92126 -0.4252,-0.0709 -0.81496,-0.17716 -1.16929,-0.28346 z"
         id="path646"
         inkscape:connector-curvature="0"
         style="clip-rule:evenodd;fill:#fefefe;fill-rule:nonzero;image-rendering:optimizeQuality;shape-rendering:geometricPrecision;text-rendering:geometricPrecision" />
      <polygon
         class="fil4"
         points="5837,18252 5837,18272 5736,18272 5736,18252 "
         id="polygon648"
         style="clip-rule:evenodd;fill:#fefefe;fill-rule:nonzero;image-rendering:optimizeQuality;shape-rendering:geometricPrecision;text-rendering:geometricPrecision"
         transform="matrix(0.03543307,0,0,0.03543307,122.18111,-99.905496)" />
      <circle
         class="fil7"
         cx="327.2323"
         cy="545.89764"
         r="0.60236222"
         id="circle650"
         style="clip-rule:evenodd;fill:#fefefe;fill-rule:evenodd;image-rendering:optimizeQuality;shape-rendering:geometricPrecision;text-rendering:geometricPrecision" />
      <circle
         class="fil7"
         cx="327.2323"
         cy="548.41339"
         r="0.60236222"
         id="circle652"
         style="clip-rule:evenodd;fill:#fefefe;fill-rule:evenodd;image-rendering:optimizeQuality;shape-rendering:geometricPrecision;text-rendering:geometricPrecision" />
    </g>
  </g>
</svg>
